<mxfile host="app.diagrams.net" modified="2021-01-03T02:03:02.116Z" agent="5.0 (Windows)" etag="3ygfRpEo77nImso2IpTQ" version="14.1.8" type="github">
  <diagram id="1p904DRUSOk9_n-IS_4u" name="Page-1">
    <mxGraphModel dx="2062" dy="1124" grid="1" gridSize="10" guides="1" tooltips="1" connect="1" arrows="1" fold="1" page="1" pageScale="1" pageWidth="1100" pageHeight="850" math="0" shadow="0">
      <root>
        <mxCell id="0" />
        <mxCell id="1" parent="0" />
        <mxCell id="SHI-ktM-hE5Mo1x6OOOh-1" value="&lt;div&gt;Azure &lt;br&gt;&lt;/div&gt;&lt;div&gt;Event Topic&lt;/div&gt;" style="aspect=fixed;html=1;points=[];align=center;image;fontSize=12;image=img/lib/azure2/integration/Event_Grid_Topics.svg;" vertex="1" parent="1">
          <mxGeometry x="517" y="254" width="67" height="60" as="geometry" />
        </mxCell>
        <mxCell id="SHI-ktM-hE5Mo1x6OOOh-5" value="GS Web Service" style="aspect=fixed;html=1;points=[];align=center;image;fontSize=12;image=img/lib/azure2/compute/App_Services.svg;labelPosition=center;verticalLabelPosition=top;verticalAlign=bottom;" vertex="1" parent="1">
          <mxGeometry x="760" y="90" width="64" height="64" as="geometry" />
        </mxCell>
        <mxCell id="SHI-ktM-hE5Mo1x6OOOh-6" value="" style="aspect=fixed;html=1;points=[];align=center;image;fontSize=12;image=img/lib/azure2/compute/App_Services.svg;" vertex="1" parent="1">
          <mxGeometry x="760" y="252" width="64" height="64" as="geometry" />
        </mxCell>
        <mxCell id="SHI-ktM-hE5Mo1x6OOOh-7" value="" style="aspect=fixed;html=1;points=[];align=center;image;fontSize=12;image=img/lib/azure2/compute/App_Services.svg;" vertex="1" parent="1">
          <mxGeometry x="760" y="410" width="64" height="64" as="geometry" />
        </mxCell>
        <mxCell id="SHI-ktM-hE5Mo1x6OOOh-15" style="edgeStyle=orthogonalEdgeStyle;rounded=0;orthogonalLoop=1;jettySize=auto;html=1;entryX=-0.06;entryY=0.467;entryDx=0;entryDy=0;entryPerimeter=0;" edge="1" parent="1" source="SHI-ktM-hE5Mo1x6OOOh-8" target="SHI-ktM-hE5Mo1x6OOOh-1">
          <mxGeometry relative="1" as="geometry" />
        </mxCell>
        <mxCell id="SHI-ktM-hE5Mo1x6OOOh-17" value="Azure Event" style="edgeLabel;html=1;align=center;verticalAlign=middle;resizable=0;points=[];" vertex="1" connectable="0" parent="SHI-ktM-hE5Mo1x6OOOh-15">
          <mxGeometry x="0.1491" y="1" relative="1" as="geometry">
            <mxPoint as="offset" />
          </mxGeometry>
        </mxCell>
        <mxCell id="SHI-ktM-hE5Mo1x6OOOh-8" value="CometD Java Proxy" style="shape=image;imageAspect=0;aspect=fixed;verticalLabelPosition=bottom;verticalAlign=top;image=https://external-content.duckduckgo.com/iu/?u=http%3A%2F%2Fwww.vhqpostsg.com%2Fcometd%2FcometdLogo.png&amp;f=1&amp;nofb=1;" vertex="1" parent="1">
          <mxGeometry x="270" y="256" width="92.6" height="52" as="geometry" />
        </mxCell>
        <mxCell id="SHI-ktM-hE5Mo1x6OOOh-13" style="edgeStyle=orthogonalEdgeStyle;rounded=0;orthogonalLoop=1;jettySize=auto;html=1;" edge="1" parent="1" source="SHI-ktM-hE5Mo1x6OOOh-9">
          <mxGeometry relative="1" as="geometry">
            <mxPoint x="260" y="284" as="targetPoint" />
          </mxGeometry>
        </mxCell>
        <mxCell id="SHI-ktM-hE5Mo1x6OOOh-14" value="CDC Event" style="edgeLabel;html=1;align=center;verticalAlign=middle;resizable=0;points=[];" vertex="1" connectable="0" parent="SHI-ktM-hE5Mo1x6OOOh-13">
          <mxGeometry x="-0.2249" y="-1" relative="1" as="geometry">
            <mxPoint as="offset" />
          </mxGeometry>
        </mxCell>
        <mxCell id="SHI-ktM-hE5Mo1x6OOOh-9" value="Salesforce &#xa;Streaming API" style="shape=image;imageAspect=0;aspect=fixed;verticalLabelPosition=bottom;verticalAlign=top;image=https://external-content.duckduckgo.com/iu/?u=https%3A%2F%2Fupload.wikimedia.org%2Fwikipedia%2Fen%2Fthumb%2F8%2F83%2FSalesforce_logo.svg%2F1200px-Salesforce_logo.svg.png&amp;f=1&amp;nofb=1;" vertex="1" parent="1">
          <mxGeometry x="20" y="252" width="91.42" height="64" as="geometry" />
        </mxCell>
        <mxCell id="SHI-ktM-hE5Mo1x6OOOh-20" value="" style="endArrow=classic;startArrow=classic;html=1;" edge="1" parent="1">
          <mxGeometry width="50" height="50" relative="1" as="geometry">
            <mxPoint x="600" y="283.5" as="sourcePoint" />
            <mxPoint x="750" y="283.5" as="targetPoint" />
          </mxGeometry>
        </mxCell>
        <mxCell id="SHI-ktM-hE5Mo1x6OOOh-21" value="" style="endArrow=classic;startArrow=classic;html=1;entryX=-0.047;entryY=0.641;entryDx=0;entryDy=0;entryPerimeter=0;" edge="1" parent="1" target="SHI-ktM-hE5Mo1x6OOOh-5">
          <mxGeometry width="50" height="50" relative="1" as="geometry">
            <mxPoint x="590" y="250" as="sourcePoint" />
            <mxPoint x="690" y="170" as="targetPoint" />
          </mxGeometry>
        </mxCell>
        <mxCell id="SHI-ktM-hE5Mo1x6OOOh-24" value="" style="endArrow=classic;startArrow=classic;html=1;entryX=-0.047;entryY=0.156;entryDx=0;entryDy=0;entryPerimeter=0;" edge="1" parent="1" target="SHI-ktM-hE5Mo1x6OOOh-7">
          <mxGeometry width="50" height="50" relative="1" as="geometry">
            <mxPoint x="590" y="320" as="sourcePoint" />
            <mxPoint x="680" y="410" as="targetPoint" />
          </mxGeometry>
        </mxCell>
        <mxCell id="SHI-ktM-hE5Mo1x6OOOh-25" value="Web services receive events from Salesforce through subscriptions to the Event Topic.&amp;nbsp; " style="text;html=1;strokeColor=none;fillColor=none;align=center;verticalAlign=middle;whiteSpace=wrap;rounded=0;" vertex="1" parent="1">
          <mxGeometry x="680" y="190" width="243" height="30" as="geometry" />
        </mxCell>
        <mxCell id="SHI-ktM-hE5Mo1x6OOOh-26" value="They can also publish events to the Event Topic for other Web Services to subscribe to" style="text;html=1;strokeColor=none;fillColor=none;align=center;verticalAlign=middle;whiteSpace=wrap;rounded=0;" vertex="1" parent="1">
          <mxGeometry x="670.5" y="330" width="243" height="40" as="geometry" />
        </mxCell>
        <mxCell id="SHI-ktM-hE5Mo1x6OOOh-27" value="" style="endArrow=none;dashed=1;html=1;fontColor=#058AFF;strokeColor=#058AFF;strokeWidth=3;" edge="1" parent="1">
          <mxGeometry width="50" height="50" relative="1" as="geometry">
            <mxPoint x="240" y="520" as="sourcePoint" />
            <mxPoint x="240" y="20" as="targetPoint" />
          </mxGeometry>
        </mxCell>
        <mxCell id="SHI-ktM-hE5Mo1x6OOOh-28" value="GreenStone Infrastructure" style="text;html=1;strokeColor=none;fillColor=none;align=center;verticalAlign=middle;whiteSpace=wrap;rounded=0;fontStyle=1;fontSize=13;" vertex="1" parent="1">
          <mxGeometry x="250" y="20" width="171.3" height="30" as="geometry" />
        </mxCell>
      </root>
    </mxGraphModel>
  </diagram>
</mxfile>
